{"title":"The Danish Girl(2015)MPEG-4[DaScubaDude]","uid":14540832,"size":1201790996,"categoryP":"video","categoryS":"movies","magnet":"?xt=urn:btih:65e6cbbb3b95560b1e78dd24d076e94a1c353d82&amp;dn=The+Danish+Girl%282015%29MPEG-4%5BDaScubaDude%5D&amp;tr=udp%3A%2F%2Ftracker.leechers-paradise.org%3A6969&amp;tr=udp%3A%2F%2Fzer0day.ch%3A1337&amp;tr=udp%3A%2F%2Fopen.demonii.com%3A1337&amp;tr=udp%3A%2F%2Ftracker.coppersurfer.tk%3A6969&amp;tr=udp%3A%2F%2Fexodus.desync.com%3A6969","seeders":1,"leechers":0,"uploader":"dascuba","files":1,"time":1462520913,"description":"The Danish Girl (2015)\r\nR | 1h 59min | Biography, Drama, Romance | 22 January 2016 (USA)\r\nA fictitious love story loosely inspired by the lives of Danish artists Lili Elbe and Gerda Wegener. Lili and Gerda's marriage and work evolve as they navigate Lili's groundbreaking journey as a transgender pioneer.\r\nDirector: Tom Hooper\r\nWriters: David Ebershoff (novel), Lucinda Coxon (screenplay)\r\nStars: Eddie Redmayne, Alicia Vikander, Amber Heard \r\n\r\nGeneral\r\nComplete name                            : TheDanishGirlDANISH_GIRL_Title16.mp4\r\nFormat                                   : MPEG-4\r\nFormat profile                           : Base Media\r\nCodec ID                                 : isom (isom/iso2/avc1/mp41)\r\nFile size                                : 1.12 GiB\r\nDuration                                 : 1h 59mn\r\nOverall bit rate                         : 1 340 Kbps\r\nMovie name                               : DANISH_GIRL\r\nGenre                                    : Drama\r\nWriting application                      : Lavf54.6.100\r\n\r\nVideo\r\nID                                       : 1\r\nFormat                                   : AVC\r\nFormat/Info                              : Advanced Video Codec\r\nFormat profile                           :   \r\nFormat settings, CABAC                   : No\r\nFormat settings, ReFrames                : 6 frames\r\nCodec ID                                 : avc1\r\nCodec ID/Info                            : Advanced Video Coding\r\nDuration                                 : 1h 59mn\r\nBit rate                                 : 1 206 Kbps\r\nWidth                                    : 720 pixels\r\nHeight                                   : 404 pixels\r\nDisplay aspect ratio                     : 16:9\r\nFrame rate mode                          : Constant\r\nFrame rate                               : 29.970 (30000/1001) fps\r\nColor space                              : YUV\r\nChroma subsampling                       : 4:2:0\r\nBit depth                                : 8 bits\r\nScan type                                : Progressive\r\nBits/(Pixel*Frame)                       : 0.138\r\nStream size                              : 1.01 GiB (90%)\r\n\r\nAudio\r\nID                                       : 2\r\nFormat                                   : AAC\r\nFormat/Info                              : Advanced Audio Codec\r\nFormat profile                           : LC\r\nCodec ID                                 : 40\r\nDuration                                 : 1h 59mn\r\nBit rate mode                            : Constant\r\nBit rate                                 : 128 Kbps\r\nChannel(s)                               : 2 channels\r\nChannel positions                        : Front: L R\r\nSampling rate                            : 44.1 KHz\r\nFrame rate                               : 43.066 fps (1024 spf)\r\nCompression mode                         : Lossy\r\nStream size                              : 109 MiB (10%)\r\nDefault                                  : Yes\r\nAlternate group                          : 1","torrent":{"xt":"urn:btih:65e6cbbb3b95560b1e78dd24d076e94a1c353d82","amp;dn":"The+Danish+Girl%282015%29MPEG-4%5BDaScubaDude%5D","amp;tr":["udp%3A%2F%2Ftracker.leechers-paradise.org%3A6969","udp%3A%2F%2Fzer0day.ch%3A1337","udp%3A%2F%2Fopen.demonii.com%3A1337","udp%3A%2F%2Ftracker.coppersurfer.tk%3A6969","udp%3A%2F%2Fexodus.desync.com%3A6969"],"infoHash":"65e6cbbb3b95560b1e78dd24d076e94a1c353d82","infoHashBuffer":{"type":"Buffer","data":[101,230,203,187,59,149,86,11,30,120,221,36,208,118,233,74,28,53,61,130]},"announce":[],"urlList":[]}}